<?xml version="1.0" encoding="UTF-8"?>
<svg width="42px" height="42px" viewBox="0 0 42 42" version="1.1" xmlns="http://www.w3.org/2000/svg" xmlns:xlink="http://www.w3.org/1999/xlink">
    <title>Group 3</title>
    <g id="Page-1" stroke="none" stroke-width="1" fill="none" fill-rule="evenodd">
        <g id="Group-3" fill-rule="nonzero">
            <path d="M41.758,20.8790001 C41.758,32.4100232 32.4103564,41.7580001 20.8793333,41.7580001 C9.34831019,41.7580001 0,32.4106898 0,20.8796667 C0,9.34864362 9.34697689,0.000552374451 20.878,0 C26.4157096,-0.000530393192 31.726776,2.1990128 35.6426219,6.1146711 C39.5584677,10.0303294 41.758,15.3412904 41.758,20.8790001 Z" id="Path" fill="#FFFFFF"></path>
            <path d="M25.6376812,11 C27.0855468,11 28.3875627,11.638123 29.2890959,12.6541635 C30.8157142,12.4391721 32.3333333,11.4444777 32.3333333,11.4739176 C31.9565217,13.0733894 30.3043478,14.2285635 30.2173913,14.2285635 L30.2361637,14.2223857 C30.2369124,14.2243676 30.23766,14.2263501 30.2384064,14.2283332 C30.9497204,14.2446491 33,13.4880673 33,13.4880673 C32.0144928,15.0282994 30.5942029,16.0057545 30.5942029,16.0649942 C30.6483092,18.6083518 30.0206763,20.6614681 29.9131852,20.9720772 L29.8985507,21.0115089 C27.5797101,28.8015292 20.4492754,30.4602407 20.4202899,30.4602407 C16.4202899,31.5463018 12.6135266,30.993398 9,28.8015292 L9,28.8015292 L9.14492754,28.8015292 C13.9275362,29.1273475 16.1884058,26.6689001 16.2463768,26.6689001 C12.5362319,26.3134619 11.6956522,23.1737579 11.7536232,23.1737579 C12.7681159,23.4699564 13.8115942,23.0552785 13.8695652,23.0848983 C10.3538647,22.0981871 9.98919334,19.123295 9.9756643,18.295062 L9.97586612,18.1896612 C9.97758152,18.1153973 9.98248792,18.0760585 9.98550725,18.0791439 C11.1449275,18.7900203 12.1014493,18.6123012 12.1594203,18.6715409 C8.47826087,15.6799361 10.6811594,11.977455 10.7391304,12.0366947 C13.4444444,15.3343712 16.8067633,17.072069 20.826087,17.2497881 C20.8345311,17.2451761 20.8429689,17.2405676 20.8514003,17.2359625 C20.7589791,16.8512242 20.7101449,16.449127 20.7101449,16.0353743 C20.7101449,13.2544139 22.916278,11 25.6376812,11 Z" id="Combined-Shape" fill="#1860D3"></path>
        </g>
    </g>
</svg>